<mxfile host="app.diagrams.net" agent="Mozilla/5.0 (Windows NT 10.0; Win64; x64) AppleWebKit/537.36 (KHTML, like Gecko) Chrome/131.0.0.0 Safari/537.36" version="25.0.3">
  <diagram name="Page-1" id="2YBvvXClWsGukQMizWep">
    <mxGraphModel dx="4097" dy="2109" grid="1" gridSize="10" guides="1" tooltips="1" connect="1" arrows="1" fold="1" page="1" pageScale="1" pageWidth="1169" pageHeight="1654" math="0" shadow="0">
      <root>
        <mxCell id="0" />
        <mxCell id="1" parent="0" />
        <mxCell id="p1_bvQ4lCgfAWQzNd4JW-222" style="edgeStyle=orthogonalEdgeStyle;rounded=0;orthogonalLoop=1;jettySize=auto;html=1;entryX=0.5;entryY=0;entryDx=0;entryDy=0;dashed=1;" parent="1" source="p1_bvQ4lCgfAWQzNd4JW-65" target="p1_bvQ4lCgfAWQzNd4JW-182" edge="1">
          <mxGeometry relative="1" as="geometry" />
        </mxCell>
        <mxCell id="p1_bvQ4lCgfAWQzNd4JW-65" value="&lt;font color=&quot;#000000&quot;&gt;Créer un compte admin&lt;/font&gt;" style="ellipse;whiteSpace=wrap;html=1;fillColor=#99CCFF;strokeColor=#66B2FF;fontColor=#ffffff;fontStyle=2" parent="1" vertex="1">
          <mxGeometry x="560" y="90" width="120" height="80" as="geometry" />
        </mxCell>
        <mxCell id="p1_bvQ4lCgfAWQzNd4JW-223" style="edgeStyle=orthogonalEdgeStyle;rounded=0;orthogonalLoop=1;jettySize=auto;html=1;entryX=0.5;entryY=0;entryDx=0;entryDy=0;dashed=1;" parent="1" source="p1_bvQ4lCgfAWQzNd4JW-66" target="p1_bvQ4lCgfAWQzNd4JW-182" edge="1">
          <mxGeometry relative="1" as="geometry" />
        </mxCell>
        <mxCell id="p1_bvQ4lCgfAWQzNd4JW-66" value="&lt;font color=&quot;#000000&quot;&gt;Statistiques covoiturages&lt;/font&gt;" style="ellipse;whiteSpace=wrap;html=1;fillColor=#99CCFF;strokeColor=#66B2FF;fontColor=#ffffff;fontStyle=2" parent="1" vertex="1">
          <mxGeometry x="560" y="180" width="120" height="80" as="geometry" />
        </mxCell>
        <mxCell id="p1_bvQ4lCgfAWQzNd4JW-224" style="edgeStyle=orthogonalEdgeStyle;rounded=0;orthogonalLoop=1;jettySize=auto;html=1;entryX=0.5;entryY=0;entryDx=0;entryDy=0;dashed=1;" parent="1" source="p1_bvQ4lCgfAWQzNd4JW-67" target="p1_bvQ4lCgfAWQzNd4JW-182" edge="1">
          <mxGeometry relative="1" as="geometry" />
        </mxCell>
        <mxCell id="p1_bvQ4lCgfAWQzNd4JW-67" value="&lt;font color=&quot;#000000&quot;&gt;Suspension compte utilisateur&lt;/font&gt;&lt;div&gt;&lt;font color=&quot;#000000&quot;&gt;ou employé&lt;/font&gt;&lt;/div&gt;" style="ellipse;whiteSpace=wrap;html=1;fillColor=#99CCFF;strokeColor=#66B2FF;fontColor=#ffffff;fontStyle=2;dashed=1;" parent="1" vertex="1">
          <mxGeometry x="560" y="270" width="120" height="80" as="geometry" />
        </mxCell>
        <mxCell id="p1_bvQ4lCgfAWQzNd4JW-225" style="edgeStyle=orthogonalEdgeStyle;rounded=0;orthogonalLoop=1;jettySize=auto;html=1;dashed=1;entryX=0.5;entryY=0;entryDx=0;entryDy=0;" parent="1" source="p1_bvQ4lCgfAWQzNd4JW-68" target="p1_bvQ4lCgfAWQzNd4JW-182" edge="1">
          <mxGeometry relative="1" as="geometry">
            <mxPoint x="1240" y="680" as="targetPoint" />
          </mxGeometry>
        </mxCell>
        <mxCell id="p1_bvQ4lCgfAWQzNd4JW-68" value="Gérer les litiges" style="ellipse;whiteSpace=wrap;html=1;fillColor=#663300;strokeColor=#B09500;fontColor=#000000;fontStyle=2;dashed=1;" parent="1" vertex="1">
          <mxGeometry x="560" y="440" width="120" height="80" as="geometry" />
        </mxCell>
        <mxCell id="p1_bvQ4lCgfAWQzNd4JW-226" style="edgeStyle=orthogonalEdgeStyle;rounded=0;orthogonalLoop=1;jettySize=auto;html=1;entryX=0.5;entryY=0;entryDx=0;entryDy=0;dashed=1;" parent="1" source="p1_bvQ4lCgfAWQzNd4JW-69" target="p1_bvQ4lCgfAWQzNd4JW-182" edge="1">
          <mxGeometry relative="1" as="geometry" />
        </mxCell>
        <mxCell id="p1_bvQ4lCgfAWQzNd4JW-228" value="&lt;font style=&quot;font-size: 20px;&quot;&gt;include&lt;/font&gt;" style="edgeLabel;html=1;align=center;verticalAlign=middle;resizable=0;points=[];" parent="p1_bvQ4lCgfAWQzNd4JW-226" vertex="1" connectable="0">
          <mxGeometry x="0.7558" y="2" relative="1" as="geometry">
            <mxPoint y="-1" as="offset" />
          </mxGeometry>
        </mxCell>
        <mxCell id="p1_bvQ4lCgfAWQzNd4JW-69" value="&lt;div&gt;Visibilité des&lt;/div&gt;&lt;div&gt;covoiturages&lt;/div&gt;" style="ellipse;whiteSpace=wrap;html=1;fillColor=#663300;strokeColor=#B09500;fontColor=#000000;fontStyle=2;dashed=1;" parent="1" vertex="1">
          <mxGeometry x="560" y="530" width="120" height="80" as="geometry" />
        </mxCell>
        <mxCell id="p1_bvQ4lCgfAWQzNd4JW-227" style="edgeStyle=orthogonalEdgeStyle;rounded=0;orthogonalLoop=1;jettySize=auto;html=1;entryX=0.5;entryY=0;entryDx=0;entryDy=0;dashed=1;" parent="1" source="p1_bvQ4lCgfAWQzNd4JW-70" target="p1_bvQ4lCgfAWQzNd4JW-182" edge="1">
          <mxGeometry relative="1" as="geometry" />
        </mxCell>
        <mxCell id="p1_bvQ4lCgfAWQzNd4JW-70" value="&lt;div&gt;Validation ou refus&lt;/div&gt;&lt;div&gt;des avis&lt;/div&gt;" style="ellipse;whiteSpace=wrap;html=1;fillColor=#663300;strokeColor=#B09500;fontColor=#000000;fontStyle=2" parent="1" vertex="1">
          <mxGeometry x="560" y="620" width="120" height="80" as="geometry" />
        </mxCell>
        <mxCell id="p1_bvQ4lCgfAWQzNd4JW-229" style="edgeStyle=orthogonalEdgeStyle;rounded=0;orthogonalLoop=1;jettySize=auto;html=1;entryX=0.5;entryY=1;entryDx=0;entryDy=0;dashed=1;" parent="1" source="p1_bvQ4lCgfAWQzNd4JW-72" target="p1_bvQ4lCgfAWQzNd4JW-182" edge="1">
          <mxGeometry relative="1" as="geometry" />
        </mxCell>
        <mxCell id="p1_bvQ4lCgfAWQzNd4JW-234" style="edgeStyle=orthogonalEdgeStyle;rounded=0;orthogonalLoop=1;jettySize=auto;html=1;dashed=1;" parent="1" source="p1_bvQ4lCgfAWQzNd4JW-72" target="p1_bvQ4lCgfAWQzNd4JW-70" edge="1">
          <mxGeometry relative="1" as="geometry" />
        </mxCell>
        <mxCell id="p1_bvQ4lCgfAWQzNd4JW-235" value="&lt;font style=&quot;font-size: 20px;&quot;&gt;extend&lt;/font&gt;" style="edgeLabel;html=1;align=center;verticalAlign=middle;resizable=0;points=[];" parent="p1_bvQ4lCgfAWQzNd4JW-234" vertex="1" connectable="0">
          <mxGeometry x="-0.2389" y="2" relative="1" as="geometry">
            <mxPoint as="offset" />
          </mxGeometry>
        </mxCell>
        <mxCell id="p1_bvQ4lCgfAWQzNd4JW-72" value="Déposer un avis" style="ellipse;whiteSpace=wrap;html=1;fillColor=#008a00;strokeColor=#005700;fontColor=#ffffff;fontStyle=2" parent="1" vertex="1">
          <mxGeometry x="560" y="800" width="120" height="80" as="geometry" />
        </mxCell>
        <mxCell id="p1_bvQ4lCgfAWQzNd4JW-230" style="edgeStyle=orthogonalEdgeStyle;rounded=0;orthogonalLoop=1;jettySize=auto;html=1;entryX=0.5;entryY=1;entryDx=0;entryDy=0;dashed=1;" parent="1" source="p1_bvQ4lCgfAWQzNd4JW-73" target="p1_bvQ4lCgfAWQzNd4JW-182" edge="1">
          <mxGeometry relative="1" as="geometry" />
        </mxCell>
        <mxCell id="p1_bvQ4lCgfAWQzNd4JW-73" value="Proposer un trajet" style="ellipse;whiteSpace=wrap;html=1;fillColor=#008a00;strokeColor=#005700;fontColor=#ffffff;fontStyle=2" parent="1" vertex="1">
          <mxGeometry x="560" y="890" width="120" height="80" as="geometry" />
        </mxCell>
        <mxCell id="p1_bvQ4lCgfAWQzNd4JW-231" style="edgeStyle=orthogonalEdgeStyle;rounded=0;orthogonalLoop=1;jettySize=auto;html=1;entryX=0.5;entryY=1;entryDx=0;entryDy=0;dashed=1;" parent="1" source="p1_bvQ4lCgfAWQzNd4JW-179" target="p1_bvQ4lCgfAWQzNd4JW-182" edge="1">
          <mxGeometry relative="1" as="geometry" />
        </mxCell>
        <mxCell id="p1_bvQ4lCgfAWQzNd4JW-179" value="Annuler un trajet" style="ellipse;whiteSpace=wrap;html=1;fillColor=#008a00;strokeColor=#005700;fontColor=#ffffff;fontStyle=2" parent="1" vertex="1">
          <mxGeometry x="560" y="980" width="120" height="80" as="geometry" />
        </mxCell>
        <mxCell id="p1_bvQ4lCgfAWQzNd4JW-232" style="edgeStyle=orthogonalEdgeStyle;rounded=0;orthogonalLoop=1;jettySize=auto;html=1;entryX=0.5;entryY=1;entryDx=0;entryDy=0;dashed=1;" parent="1" source="p1_bvQ4lCgfAWQzNd4JW-180" target="p1_bvQ4lCgfAWQzNd4JW-182" edge="1">
          <mxGeometry relative="1" as="geometry" />
        </mxCell>
        <mxCell id="p1_bvQ4lCgfAWQzNd4JW-180" value="&lt;div&gt;Participer à un&lt;/div&gt;&lt;div&gt;covoiturage&lt;/div&gt;" style="ellipse;whiteSpace=wrap;html=1;fillColor=#008a00;strokeColor=#005700;fontColor=#ffffff;fontStyle=2" parent="1" vertex="1">
          <mxGeometry x="560" y="1070" width="120" height="80" as="geometry" />
        </mxCell>
        <mxCell id="p1_bvQ4lCgfAWQzNd4JW-233" style="edgeStyle=orthogonalEdgeStyle;rounded=0;orthogonalLoop=1;jettySize=auto;html=1;entryX=0.5;entryY=1;entryDx=0;entryDy=0;" parent="1" source="p1_bvQ4lCgfAWQzNd4JW-181" target="p1_bvQ4lCgfAWQzNd4JW-182" edge="1">
          <mxGeometry relative="1" as="geometry" />
        </mxCell>
        <mxCell id="p1_bvQ4lCgfAWQzNd4JW-237" value="&lt;font style=&quot;font-size: 20px;&quot;&gt;include&lt;/font&gt;" style="edgeLabel;html=1;align=center;verticalAlign=middle;resizable=0;points=[];" parent="p1_bvQ4lCgfAWQzNd4JW-233" vertex="1" connectable="0">
          <mxGeometry x="0.7159" y="-4" relative="1" as="geometry">
            <mxPoint as="offset" />
          </mxGeometry>
        </mxCell>
        <mxCell id="p1_bvQ4lCgfAWQzNd4JW-181" value="&lt;div&gt;Consulter&lt;/div&gt;&lt;div&gt;l&#39;historique des&lt;/div&gt;&lt;div&gt;trajets&lt;/div&gt;" style="ellipse;whiteSpace=wrap;html=1;fillColor=#008a00;strokeColor=#005700;fontColor=#ffffff;fontStyle=2" parent="1" vertex="1">
          <mxGeometry x="560" y="1160" width="120" height="80" as="geometry" />
        </mxCell>
        <mxCell id="p1_bvQ4lCgfAWQzNd4JW-182" value="&lt;div&gt;&lt;font color=&quot;#000000&quot;&gt;Se connecter&lt;/font&gt;&lt;/div&gt;" style="ellipse;whiteSpace=wrap;html=1;fillColor=#007FFF;strokeColor=#006EAF;fontColor=#ffffff;fontStyle=2" parent="1" vertex="1">
          <mxGeometry x="950" y="700" width="120" height="80" as="geometry" />
        </mxCell>
        <mxCell id="p1_bvQ4lCgfAWQzNd4JW-195" style="edgeStyle=orthogonalEdgeStyle;rounded=0;orthogonalLoop=1;jettySize=auto;html=1;entryX=0;entryY=0.5;entryDx=0;entryDy=0;" parent="1" source="p1_bvQ4lCgfAWQzNd4JW-183" target="p1_bvQ4lCgfAWQzNd4JW-66" edge="1">
          <mxGeometry relative="1" as="geometry" />
        </mxCell>
        <mxCell id="p1_bvQ4lCgfAWQzNd4JW-196" style="edgeStyle=orthogonalEdgeStyle;rounded=0;orthogonalLoop=1;jettySize=auto;html=1;entryX=0;entryY=0.5;entryDx=0;entryDy=0;" parent="1" source="p1_bvQ4lCgfAWQzNd4JW-183" target="p1_bvQ4lCgfAWQzNd4JW-65" edge="1">
          <mxGeometry relative="1" as="geometry" />
        </mxCell>
        <mxCell id="p1_bvQ4lCgfAWQzNd4JW-197" style="edgeStyle=orthogonalEdgeStyle;rounded=0;orthogonalLoop=1;jettySize=auto;html=1;entryX=0;entryY=0.5;entryDx=0;entryDy=0;" parent="1" source="p1_bvQ4lCgfAWQzNd4JW-183" target="p1_bvQ4lCgfAWQzNd4JW-67" edge="1">
          <mxGeometry relative="1" as="geometry" />
        </mxCell>
        <mxCell id="p1_bvQ4lCgfAWQzNd4JW-199" value="" style="edgeStyle=orthogonalEdgeStyle;rounded=0;orthogonalLoop=1;jettySize=auto;html=1;entryX=0.5;entryY=0;entryDx=0;entryDy=0;entryPerimeter=0;" parent="1" source="p1_bvQ4lCgfAWQzNd4JW-183" target="p1_bvQ4lCgfAWQzNd4JW-198" edge="1">
          <mxGeometry relative="1" as="geometry">
            <mxPoint x="425" y="520" as="targetPoint" />
          </mxGeometry>
        </mxCell>
        <mxCell id="p1_bvQ4lCgfAWQzNd4JW-183" value="Administrateur" style="shape=umlActor;verticalLabelPosition=bottom;verticalAlign=top;html=1;outlineConnect=0;" parent="1" vertex="1">
          <mxGeometry x="410" y="190" width="30" height="60" as="geometry" />
        </mxCell>
        <mxCell id="p1_bvQ4lCgfAWQzNd4JW-187" style="edgeStyle=orthogonalEdgeStyle;rounded=0;orthogonalLoop=1;jettySize=auto;html=1;entryX=0;entryY=0.5;entryDx=0;entryDy=0;" parent="1" source="p1_bvQ4lCgfAWQzNd4JW-184" target="p1_bvQ4lCgfAWQzNd4JW-72" edge="1">
          <mxGeometry relative="1" as="geometry" />
        </mxCell>
        <mxCell id="p1_bvQ4lCgfAWQzNd4JW-189" style="edgeStyle=orthogonalEdgeStyle;rounded=0;orthogonalLoop=1;jettySize=auto;html=1;entryX=0;entryY=0.5;entryDx=0;entryDy=0;" parent="1" source="p1_bvQ4lCgfAWQzNd4JW-184" target="p1_bvQ4lCgfAWQzNd4JW-179" edge="1">
          <mxGeometry relative="1" as="geometry" />
        </mxCell>
        <mxCell id="p1_bvQ4lCgfAWQzNd4JW-190" style="edgeStyle=orthogonalEdgeStyle;rounded=0;orthogonalLoop=1;jettySize=auto;html=1;entryX=0;entryY=0.5;entryDx=0;entryDy=0;" parent="1" source="p1_bvQ4lCgfAWQzNd4JW-184" target="p1_bvQ4lCgfAWQzNd4JW-180" edge="1">
          <mxGeometry relative="1" as="geometry" />
        </mxCell>
        <mxCell id="p1_bvQ4lCgfAWQzNd4JW-191" style="edgeStyle=orthogonalEdgeStyle;rounded=0;orthogonalLoop=1;jettySize=auto;html=1;entryX=0;entryY=0.5;entryDx=0;entryDy=0;" parent="1" source="p1_bvQ4lCgfAWQzNd4JW-184" target="p1_bvQ4lCgfAWQzNd4JW-181" edge="1">
          <mxGeometry relative="1" as="geometry" />
        </mxCell>
        <mxCell id="p1_bvQ4lCgfAWQzNd4JW-184" value="Utilisateur" style="shape=umlActor;verticalLabelPosition=bottom;verticalAlign=top;html=1;outlineConnect=0;" parent="1" vertex="1">
          <mxGeometry x="410" y="990" width="30" height="60" as="geometry" />
        </mxCell>
        <mxCell id="p1_bvQ4lCgfAWQzNd4JW-188" style="edgeStyle=orthogonalEdgeStyle;rounded=0;orthogonalLoop=1;jettySize=auto;html=1;entryX=0;entryY=0.375;entryDx=0;entryDy=0;entryPerimeter=0;" parent="1" source="p1_bvQ4lCgfAWQzNd4JW-184" target="p1_bvQ4lCgfAWQzNd4JW-73" edge="1">
          <mxGeometry relative="1" as="geometry" />
        </mxCell>
        <mxCell id="p1_bvQ4lCgfAWQzNd4JW-202" style="edgeStyle=orthogonalEdgeStyle;rounded=0;orthogonalLoop=1;jettySize=auto;html=1;" parent="1" source="p1_bvQ4lCgfAWQzNd4JW-198" target="p1_bvQ4lCgfAWQzNd4JW-184" edge="1">
          <mxGeometry relative="1" as="geometry">
            <mxPoint x="425" y="980" as="targetPoint" />
          </mxGeometry>
        </mxCell>
        <mxCell id="p1_bvQ4lCgfAWQzNd4JW-238" style="edgeStyle=orthogonalEdgeStyle;rounded=0;orthogonalLoop=1;jettySize=auto;html=1;entryX=0;entryY=0.5;entryDx=0;entryDy=0;" parent="1" source="p1_bvQ4lCgfAWQzNd4JW-198" target="p1_bvQ4lCgfAWQzNd4JW-68" edge="1">
          <mxGeometry relative="1" as="geometry" />
        </mxCell>
        <mxCell id="p1_bvQ4lCgfAWQzNd4JW-239" style="edgeStyle=orthogonalEdgeStyle;rounded=0;orthogonalLoop=1;jettySize=auto;html=1;entryX=0;entryY=0.5;entryDx=0;entryDy=0;" parent="1" source="p1_bvQ4lCgfAWQzNd4JW-198" target="p1_bvQ4lCgfAWQzNd4JW-69" edge="1">
          <mxGeometry relative="1" as="geometry" />
        </mxCell>
        <mxCell id="p1_bvQ4lCgfAWQzNd4JW-240" style="edgeStyle=orthogonalEdgeStyle;rounded=0;orthogonalLoop=1;jettySize=auto;html=1;entryX=0;entryY=0.5;entryDx=0;entryDy=0;" parent="1" source="p1_bvQ4lCgfAWQzNd4JW-198" target="p1_bvQ4lCgfAWQzNd4JW-70" edge="1">
          <mxGeometry relative="1" as="geometry" />
        </mxCell>
        <mxCell id="p1_bvQ4lCgfAWQzNd4JW-198" value="Employé" style="shape=umlActor;verticalLabelPosition=bottom;verticalAlign=top;html=1;outlineConnect=0;" parent="1" vertex="1">
          <mxGeometry x="410" y="540" width="30" height="60" as="geometry" />
        </mxCell>
        <mxCell id="p1_bvQ4lCgfAWQzNd4JW-212" style="edgeStyle=orthogonalEdgeStyle;rounded=0;orthogonalLoop=1;jettySize=auto;html=1;entryX=0;entryY=0.5;entryDx=0;entryDy=0;" parent="1" source="p1_bvQ4lCgfAWQzNd4JW-204" target="p1_bvQ4lCgfAWQzNd4JW-206" edge="1">
          <mxGeometry relative="1" as="geometry" />
        </mxCell>
        <mxCell id="p1_bvQ4lCgfAWQzNd4JW-213" style="edgeStyle=orthogonalEdgeStyle;rounded=0;orthogonalLoop=1;jettySize=auto;html=1;entryX=0;entryY=0.5;entryDx=0;entryDy=0;" parent="1" source="p1_bvQ4lCgfAWQzNd4JW-204" target="p1_bvQ4lCgfAWQzNd4JW-207" edge="1">
          <mxGeometry relative="1" as="geometry" />
        </mxCell>
        <mxCell id="p1_bvQ4lCgfAWQzNd4JW-216" style="edgeStyle=orthogonalEdgeStyle;rounded=0;orthogonalLoop=1;jettySize=auto;html=1;entryX=0;entryY=0.5;entryDx=0;entryDy=0;" parent="1" source="p1_bvQ4lCgfAWQzNd4JW-204" target="p1_bvQ4lCgfAWQzNd4JW-210" edge="1">
          <mxGeometry relative="1" as="geometry">
            <Array as="points">
              <mxPoint x="580" y="1460" />
              <mxPoint x="580" y="1460" />
            </Array>
          </mxGeometry>
        </mxCell>
        <mxCell id="p1_bvQ4lCgfAWQzNd4JW-204" value="Visiteur" style="shape=umlActor;verticalLabelPosition=bottom;verticalAlign=top;html=1;outlineConnect=0;" parent="1" vertex="1">
          <mxGeometry x="410" y="1410" width="30" height="60" as="geometry" />
        </mxCell>
        <mxCell id="p1_bvQ4lCgfAWQzNd4JW-205" value="&lt;div&gt;Naviguer sur&lt;/div&gt;&lt;div&gt;l&#39;application&lt;/div&gt;" style="ellipse;whiteSpace=wrap;html=1;fillColor=#FF9999;strokeColor=#005700;fontColor=#000000;fontStyle=2" parent="1" vertex="1">
          <mxGeometry x="560" y="1280" width="120" height="80" as="geometry" />
        </mxCell>
        <mxCell id="p1_bvQ4lCgfAWQzNd4JW-206" value="&lt;div&gt;Chercher un&lt;/div&gt;&lt;div&gt;covoiturage&lt;/div&gt;" style="ellipse;whiteSpace=wrap;html=1;fillColor=#FF9999;strokeColor=#005700;fontColor=#000000;fontStyle=2" parent="1" vertex="1">
          <mxGeometry x="560" y="1370" width="120" height="80" as="geometry" />
        </mxCell>
        <mxCell id="p1_bvQ4lCgfAWQzNd4JW-207" value="&lt;div&gt;Visualiser les&lt;/div&gt;&lt;div&gt;détails de&lt;/div&gt;&lt;div&gt;covoiturage&lt;/div&gt;" style="ellipse;whiteSpace=wrap;html=1;fillColor=#FF9999;strokeColor=#005700;fontColor=#000000;fontStyle=2" parent="1" vertex="1">
          <mxGeometry x="560" y="1470" width="120" height="80" as="geometry" />
        </mxCell>
        <mxCell id="p1_bvQ4lCgfAWQzNd4JW-208" value="&lt;div&gt;Créer un compte /&lt;/div&gt;&lt;div&gt;Se connecter&lt;/div&gt;" style="ellipse;whiteSpace=wrap;html=1;fillColor=#FF9999;strokeColor=#005700;fontColor=#000000;fontStyle=2" parent="1" vertex="1">
          <mxGeometry x="560" y="1560" width="120" height="80" as="geometry" />
        </mxCell>
        <mxCell id="p1_bvQ4lCgfAWQzNd4JW-210" value="&lt;div&gt;Filter les&lt;/div&gt;&lt;div&gt;covoiturages&lt;/div&gt;" style="ellipse;whiteSpace=wrap;html=1;fillColor=#FF9999;strokeColor=#005700;fontColor=#000000;fontStyle=2" parent="1" vertex="1">
          <mxGeometry x="950" y="1420" width="120" height="80" as="geometry" />
        </mxCell>
        <mxCell id="p1_bvQ4lCgfAWQzNd4JW-211" style="edgeStyle=orthogonalEdgeStyle;rounded=0;orthogonalLoop=1;jettySize=auto;html=1;entryX=-0.005;entryY=0.426;entryDx=0;entryDy=0;entryPerimeter=0;" parent="1" source="p1_bvQ4lCgfAWQzNd4JW-204" target="p1_bvQ4lCgfAWQzNd4JW-205" edge="1">
          <mxGeometry relative="1" as="geometry" />
        </mxCell>
        <mxCell id="p1_bvQ4lCgfAWQzNd4JW-214" style="edgeStyle=orthogonalEdgeStyle;rounded=0;orthogonalLoop=1;jettySize=auto;html=1;entryX=0;entryY=0.625;entryDx=0;entryDy=0;entryPerimeter=0;" parent="1" source="p1_bvQ4lCgfAWQzNd4JW-204" target="p1_bvQ4lCgfAWQzNd4JW-208" edge="1">
          <mxGeometry relative="1" as="geometry" />
        </mxCell>
        <mxCell id="p1_bvQ4lCgfAWQzNd4JW-219" value="" style="endArrow=classic;html=1;rounded=0;exitX=1;exitY=0.5;exitDx=0;exitDy=0;dashed=1;dashPattern=8 8;entryX=0.108;entryY=0.247;entryDx=0;entryDy=0;entryPerimeter=0;" parent="1" source="p1_bvQ4lCgfAWQzNd4JW-206" target="p1_bvQ4lCgfAWQzNd4JW-210" edge="1">
          <mxGeometry width="50" height="50" relative="1" as="geometry">
            <mxPoint x="830" y="1460" as="sourcePoint" />
            <mxPoint x="900" y="1410" as="targetPoint" />
            <Array as="points">
              <mxPoint x="860" y="1410" />
              <mxPoint x="860" y="1440" />
            </Array>
          </mxGeometry>
        </mxCell>
        <mxCell id="p1_bvQ4lCgfAWQzNd4JW-220" value="include" style="edgeLabel;html=1;align=center;verticalAlign=middle;resizable=0;points=[];" parent="p1_bvQ4lCgfAWQzNd4JW-219" vertex="1" connectable="0">
          <mxGeometry x="0.3119" y="1" relative="1" as="geometry">
            <mxPoint x="-55" y="-29" as="offset" />
          </mxGeometry>
        </mxCell>
        <mxCell id="nWyrY5JBI91KnFVhD3VQ-1" value="&lt;font style=&quot;font-size: 32px;&quot;&gt;Diagramme de cas d&#39;utilisation EcoRide&lt;/font&gt;" style="text;html=1;align=center;verticalAlign=middle;resizable=0;points=[];autosize=1;strokeColor=none;fillColor=none;" vertex="1" parent="1">
          <mxGeometry x="15" y="20" width="590" height="50" as="geometry" />
        </mxCell>
      </root>
    </mxGraphModel>
  </diagram>
</mxfile>
